HIERARCHY
ROOT hip
{
	OFFSET 0.000000 0.000000 0.000000
	CHANNELS 6 Xposition Yposition Zposition Xrotation Zrotation Yrotation 
	JOINT abdomen
	{
		OFFSET 0.000000 3.422050 0.000000
		CHANNELS 3 Xrotation Zrotation Yrotation 
		JOINT chest
		{
			OFFSET 0.000000 8.486693 -0.684411
			CHANNELS 3 Xrotation Zrotation Yrotation 
			JOINT neck
			{
				OFFSET 0.000000 10.266162 -0.273764
				CHANNELS 3 Xrotation Zrotation Yrotation 
				JOINT head
				{
					OFFSET 0.000000 3.148285 0.000000
					CHANNELS 3 Xrotation Zrotation Yrotation 
					End Site
					{
						OFFSET 0.000000 3.148289 0.000000
					}
				}
			}
			JOINT lCollar
			{
				OFFSET 3.422053 6.707223 -0.821293
				CHANNELS 3 Yrotation Zrotation Xrotation 
				JOINT lShldr
				{
					OFFSET 3.285171 0.000000 0.000000
					CHANNELS 3 Zrotation Yrotation Xrotation 
					JOINT lForeArm
					{
						OFFSET 10.129278 0.000000 0.000000
						CHANNELS 3 Yrotation Zrotation Xrotation 
						JOINT lHand
						{
							OFFSET 8.486692 0.000000 0.000000
							CHANNELS 3 Zrotation Yrotation Xrotation 
							End Site
							{
								OFFSET 4.106464 0.000000 0.000000
							}
						}
					}
				}
			}
			JOINT rCollar
			{
				OFFSET -3.558935 6.707223 -0.821293
				CHANNELS 3 Yrotation Zrotation Xrotation 
				JOINT rShldr
				{
					OFFSET -3.148289 0.000000 0.000000
					CHANNELS 3 Zrotation Yrotation Xrotation 
					JOINT rForeArm
					{
						OFFSET -10.266159 0.000000 0.000000
						CHANNELS 3 Yrotation Zrotation Xrotation 
						JOINT rHand
						{
							OFFSET -8.349810 0.000000 0.000000
							CHANNELS 3 Zrotation Yrotation Xrotation 
							End Site
							{
								OFFSET -4.106464 0.000000 0.000000
							}
						}
					}
				}
			}
		}
	}
	JOINT lThigh
	{
		OFFSET 5.338403 -1.642589 1.368821
		CHANNELS 3 Xrotation Zrotation Yrotation 
		JOINT lShin
		{
			OFFSET -2.053232 -20.121670 0.000000
			CHANNELS 3 Xrotation Zrotation Yrotation 
			JOINT lFoot
			{
				OFFSET 0.000000 -19.300380 -1.231939
				CHANNELS 3 Xrotation Yrotation Zrotation 
				End Site
				{
					OFFSET 0.000000 -2.463878 4.653993
				}
			}
		}
	}
	JOINT rThigh
	{
		OFFSET -5.338403 -1.642589 1.368821
		CHANNELS 3 Xrotation Zrotation Yrotation 
		JOINT rShin
		{
			OFFSET 2.053232 -20.121670 0.000000
			CHANNELS 3 Xrotation Zrotation Yrotation 
			JOINT rFoot
			{
				OFFSET 0.000000 -19.300380 -1.231939
				CHANNELS 3 Xrotation Yrotation Zrotation 
				End Site
				{
					OFFSET 0.000000 -2.463878 4.653993
				}
			}
		}
	}
}
MOTION
Frames: 9
Frame Time: 0.049939
0.000000 43.528500 0.000000 0.000000 0.000000 0.000000 0.000000 0.000000 0.000000 0.000000 0.000000 0.000000 0.000000 0.000000 0.000000 0.000000 0.000000 0.000000 0.000000 0.000000 0.000000 0.000000 0.000000 0.000000 0.000000 0.000000 0.000000 0.000000 0.000000 0.000000 0.000000 0.000000 0.000000 0.000000 0.000000 0.000000 0.000000 0.000000 0.000000 0.000000 0.000000 0.000000 0.000000 0.000000 0.000000 0.000000 0.000000 0.000000 0.000000 0.000000 0.000000 0.000000 0.000000 0.000000 0.000000 0.000000 0.000000 0.000000 0.000000 0.000000 
-25.552809 18.312105 10.582178 -0.000379 -42.000168 96.995255 23.156128 -3.758529 -1.514962 27.559086 2.058327 0.585873 -50.003040 -12.003720 24.999363 5.998535 0.000000 0.000000 32.298737 -10.440546 0.148940 -112.431602 -58.202419 13.374039 -95.967987 -20.882753 -43.096783 -20.710560 8.713637 -46.146473 9.720211 -39.891125 4.182270 -57.940994 63.705490 -58.045113 18.762867 -9.825059 -110.564651 -22.529552 -4.763558 6.492006 -83.419907 4.717780 4.543664 133.082977 4.712175 -1.757775 57.613323 16.312998 8.822193 -87.627930 -5.459182 0.518318 134.220123 -5.091718 1.734934 63.351009 -3.417764 4.976508 
-25.552809 18.312105 10.582178 -0.000377 -42.000168 96.995239 22.648144 -3.739498 -1.471297 27.500153 2.045435 0.579341 -49.075943 -12.003532 24.999359 6.569485 0.000000 0.000000 31.814407 -10.315459 0.088616 -112.431602 -58.202419 13.374039 -94.924423 -20.643808 -42.744011 -21.072819 8.609403 -45.749485 8.928334 -39.337803 3.684154 -57.676807 63.909042 -57.828384 20.389355 -9.679264 -110.433342 -23.100645 -4.763513 6.492013 -83.419907 4.717780 4.543664 133.082962 4.712175 -1.757775 57.613323 16.312998 8.822193 -87.627914 -5.459182 0.518318 134.220123 -5.091717 1.734934 63.351009 -3.417763 4.976508 
-25.552809 18.312105 10.582178 -0.000379 -42.000168 96.995255 22.140066 -3.720077 -1.427793 27.441216 2.032535 0.572823 -48.148090 -12.003341 24.999352 7.140606 0.000000 0.000000 31.330280 -10.189840 0.029379 -112.431602 -58.202419 13.374039 -93.883110 -20.398670 -42.396168 -21.435820 8.507623 -45.351826 8.148389 -38.778919 3.199504 -57.408924 64.112160 -57.607925 22.018715 -9.529496 -110.306046 -23.671909 -4.763467 6.492020 -83.419907 4.717780 4.543664 133.082977 4.712175 -1.757775 57.613323 16.312998 8.822193 -87.627930 -5.459182 0.518318 134.220123 -5.091718 1.734934 63.351009 -3.417764 4.976508 
-25.552809 18.312105 10.582178 -0.000379 -42.000168 96.995255 21.631918 -3.700268 -1.384455 27.382286 2.019628 0.566317 -47.219643 -12.003150 24.999346 7.711868 0.000000 0.000000 30.846401 -10.063718 -0.028765 -112.431602 -58.202419 13.374037 -92.844276 -20.147474 -42.053432 -21.799530 8.408315 -44.953522 7.380147 -38.214722 2.728103 -57.137222 64.314804 -57.383625 23.650297 -9.375907 -110.182930 -24.243313 -4.763422 6.492025 -83.419891 4.717780 4.543664 133.082977 4.712175 -1.757775 57.613323 16.312998 8.822193 -87.627930 -5.459182 0.518318 134.220123 -5.091717 1.734934 63.351009 -3.417764 4.976508 
-25.552809 18.312105 10.582178 -0.000379 -42.000168 96.995255 21.123709 -3.680072 -1.341289 27.323351 2.006714 0.559824 -46.290699 -12.002955 24.999344 8.283244 0.000000 0.000000 30.362770 -9.937098 -0.085812 -112.431595 -58.202419 13.374035 -91.808098 -19.890331 -41.715935 -22.163910 8.311488 -44.554604 6.623380 -37.645416 2.269728 -56.861656 64.516991 -57.155411 25.283445 -9.218664 -110.064156 -24.814831 -4.763375 6.492030 -83.419907 4.717780 4.543664 133.082977 4.712175 -1.757775 57.613323 16.312998 8.822193 -87.627930 -5.459182 0.518318 134.220123 -5.091718 1.734934 63.351009 -3.417764 4.976508 
-25.552809 18.312105 10.582178 -0.000382 -42.000164 96.995255 20.615475 -3.659493 -1.298301 27.264414 1.993792 0.553345 -45.361389 -12.002764 24.999344 8.854705 0.000000 0.000000 29.879387 -9.809988 -0.141756 -112.431602 -58.202419 13.374039 -90.774734 -19.627377 -41.383820 -22.528925 8.217162 -44.155098 5.877854 -37.071239 1.824158 -56.582150 64.718697 -56.923222 26.917503 -9.057945 -109.949867 -25.386436 -4.763330 6.492035 -83.419907 4.717780 4.543664 133.082962 4.712175 -1.757775 57.613323 16.312998 8.822192 -87.627930 -5.459182 0.518318 134.220123 -5.091718 1.734934 63.351009 -3.417764 4.976508 
-25.552809 18.312105 10.582178 -0.000379 -42.000168 96.995255 20.107222 -3.638533 -1.255495 27.205481 1.980864 0.546878 -44.431843 -12.002576 24.999350 9.426222 0.000000 0.000000 29.396294 -9.682414 -0.196593 -112.431602 -58.202419 13.374039 -89.744408 -19.358763 -41.057240 -22.894558 8.125349 -43.755051 5.143343 -36.492428 1.391169 -56.298634 64.919945 -56.686989 28.551834 -8.893952 -109.840263 -25.958097 -4.763284 6.492039 -83.419907 4.717780 4.543664 133.082977 4.712175 -1.757775 57.613323 16.312998 8.822193 -87.627930 -5.459182 0.518318 134.220123 -5.091718 1.734934 63.351009 -3.417764 4.976508 
-25.552809 18.312105 10.582178 -0.000382 -42.000168 96.995255 19.598980 -3.617193 -1.212876 27.146540 1.967928 0.540424 -43.502171 -12.002381 24.999359 9.997768 0.000000 0.000000 28.913471 -9.554381 -0.250318 -112.431602 -58.202419 13.374039 -88.717247 -19.084620 -40.736309 -23.260757 8.036061 -43.354488 4.419609 -35.909191 0.970534 -56.010998 65.120674 -56.446598 30.185772 -8.726869 -109.735435 -26.529791 -4.763238 6.492044 -83.419907 4.717780 4.543664 133.082977 4.712175 -1.757775 57.613323 16.312998 8.822192 -87.627930 -5.459182 0.518318 134.220123 -5.091718 1.734934 63.351009 -3.417763 4.976508 
